HIERARCHY
ROOT Hips
{
	OFFSET 0.000000 0.000000 0.000000
	CHANNELS 6 Xposition Yposition Zposition Zrotation Yrotation Xrotation
	JOINT Spine
	{
		OFFSET 3.947960 -0.891740 0.000000
		CHANNELS 3 Zrotation Yrotation Xrotation
		JOINT Spine1
		{
			OFFSET 4.082800 -0.719910 0.000000
			CHANNELS 3 Zrotation Yrotation Xrotation
			JOINT Spine2
			{
				OFFSET 4.130011 -0.361330 0.000000
				CHANNELS 3 Zrotation Yrotation Xrotation
				JOINT Spine3
				{
					OFFSET 4.145781 0.000000 0.000000
					CHANNELS 3 Zrotation Yrotation Xrotation
					JOINT Neck
					{
						OFFSET 5.330290 0.533030 0.000000
						CHANNELS 3 Zrotation Yrotation Xrotation
						JOINT Neck1
						{
							OFFSET 1.811001 0.158440 0.000000
							CHANNELS 3 Zrotation Yrotation Xrotation
							JOINT Head
							{
								OFFSET 1.790300 0.315680 0.000000
								CHANNELS 3 Zrotation Yrotation Xrotation
								End Site
								{
									OFFSET 3.829800 0.000000 0.000000
								}
							}
						}
					}
					JOINT RightShoulder
					{
						OFFSET 3.807350 2.526960 0.000000
						CHANNELS 3 Zrotation Yrotation Xrotation
						JOINT RightArm
						{
							OFFSET 0.000000 0.000000 -7.723430
							CHANNELS 3 Zrotation Yrotation Xrotation
							JOINT RightForeArm
							{
								OFFSET 0.000000 0.000000 -11.009809
								CHANNELS 3 Zrotation Yrotation Xrotation
								JOINT RightHand
								{
									OFFSET 0.000002 0.000000 -9.515890
									CHANNELS 3 Zrotation Yrotation Xrotation
									End Site
									{
										OFFSET -0.065611 0.000000 -1.267609
									}
								}
							}
						}
					}
					JOINT LeftShoulder
					{
						OFFSET 3.807350 2.526960 0.000000
						CHANNELS 3 Zrotation Yrotation Xrotation
						JOINT LeftArm
						{
							OFFSET 0.000000 0.000000 7.723430
							CHANNELS 3 Zrotation Yrotation Xrotation
							JOINT LeftForeArm
							{
								OFFSET 0.000000 0.000000 11.009808
								CHANNELS 3 Zrotation Yrotation Xrotation
								JOINT LeftHand
								{
									OFFSET -0.000002 0.000000 9.515890
									CHANNELS 3 Zrotation Yrotation Xrotation
									End Site
									{
										OFFSET -0.065611 0.000000 1.257635
									}
								}
							}
						}
					}
				}
			}
		}
	}
	JOINT RightUpLeg
	{
		OFFSET 0.000000 0.000000 -3.214260
		CHANNELS 3 Zrotation Yrotation Xrotation
		JOINT RightLeg
		{
			OFFSET -15.639260 0.000001 -0.000001
			CHANNELS 3 Zrotation Yrotation Xrotation
			JOINT RightFoot
			{
				OFFSET -16.449070 0.000001 -0.000001
				CHANNELS 3 Zrotation Yrotation Xrotation
				JOINT RightToeBase
				{
					OFFSET -1.440762 5.642469 0.000000
					CHANNELS 3 Zrotation Yrotation Xrotation
					End Site
					{
						OFFSET 0.000000 3.133922 0.000000
					}
				}
			}
		}
	}
	JOINT LeftUpLeg
	{
		OFFSET -0.000000 0.000000 3.214260
		CHANNELS 3 Zrotation Yrotation Xrotation
		JOINT LeftLeg
		{
			OFFSET -15.639260 0.000001 -0.000001
			CHANNELS 3 Zrotation Yrotation Xrotation
			JOINT LeftFoot
			{
				OFFSET -16.449070 0.000001 -0.000001
				CHANNELS 3 Zrotation Yrotation Xrotation
				JOINT LeftToeBase
				{
					OFFSET -1.440762 5.642469 0.000000
					CHANNELS 3 Zrotation Yrotation Xrotation
					End Site
					{
						OFFSET 0.000000 3.098962 0.000000
					}
				}
			}
		}
	}
}
MOTION
Frames: 10
Frame Time: 0.008333
-0.146201 0.010605 0.091100 -80.172146 -178.408571 -3.052787 10.419417 -1.111374 -0.384675 -0.022644 -0.630892 0.294519 -1.768032 -0.916192 2.251799 0.097687 0.019499 0.548603 5.664446 0.128436 -1.818214 -2.961919 2.179500 -2.126453 -0.911942 1.555474 -0.336727 -4.210147 12.163361 -19.258278 65.795888 45.354847 57.387789 5.479561 -2.865399 27.525075 -0.000008 -9.598419 -5.489081 -2.699790 -9.395612 16.111721 64.774468 -52.529223 -59.948864 21.516952 10.038382 -23.851420 0.000013 -2.461683 6.438002 18.308568 -1.219000 0.038914 0.747404 0.000000 -0.000000 -10.267945 -5.504309 -9.774901 6.930851 0.000000 -0.000000 18.148938 -0.072787 0.895005 1.089414 0.000000 -0.000000 -10.102451 -1.442805 3.566949 12.957270 0.000001 -0.000004
-0.150000 0.011112 0.091300 -80.166374 -178.403353 -3.049075 10.420080 -1.110874 -0.382874 -0.020738 -0.629492 0.294519 -1.770992 -0.914093 2.254598 0.096289 0.020500 0.548903 5.668601 0.098850 -1.810510 -2.957421 2.199966 -2.140592 -0.911123 1.552274 -0.336627 -4.209679 12.160886 -19.259588 65.770678 45.367612 57.385822 5.482645 -2.857307 27.445478 0.000016 -9.637200 -5.473377 -2.700881 -9.402053 16.107304 64.762822 -52.517891 -59.933920 21.504417 10.037832 -23.863858 0.000018 -2.450195 6.451665 18.302404 -1.222800 0.046415 0.758503 0.000000 -0.000000 -10.274228 -5.505503 -9.786177 6.947153 -0.000000 -0.000003 18.146185 -0.076290 0.888005 1.090314 0.000000 -0.000000 -10.092017 -1.443598 3.571552 12.948873 0.000001 -0.000004
-0.153301 0.011505 0.091800 -80.153875 -178.401153 -3.041188 10.424662 -1.107475 -0.383574 -0.018435 -0.629491 0.294319 -1.770837 -0.913194 2.253199 0.092414 0.022500 0.548803 5.666577 0.121639 -1.814613 -2.945295 2.164607 -2.129734 -0.903485 1.548475 -0.336026 -4.207326 12.156351 -19.256508 65.748439 45.384370 57.386587 5.493767 -2.853699 27.368177 -0.000031 -9.658771 -5.469370 -2.697630 -9.399794 16.092318 64.748486 -52.531784 -59.917247 21.517072 10.044792 -23.864681 -0.000042 -2.444762 6.444132 18.306678 -1.221501 0.043315 0.765504 0.000000 0.000000 -10.271114 -5.503385 -9.795086 6.928853 -0.000001 -0.000002 18.153825 -0.075090 0.871905 1.085012 0.000000 -0.000000 -10.084860 -1.436304 3.575642 12.945572 0.000001 -0.000004
-0.156300 0.011810 0.092100 -80.135051 -178.398640 -3.033187 10.438206 -1.103974 -0.387074 -0.018626 -0.628892 0.294119 -1.771183 -0.911795 2.253297 0.088728 0.024600 0.549402 5.664066 0.106148 -1.812113 -2.936460 2.177287 -2.137558 -0.898313 1.540773 -0.335023 -4.205101 12.150302 -19.255454 65.722833 45.403280 57.390794 5.513481 -2.854367 27.289449 -0.000013 -9.680302 -5.468100 -2.696567 -9.400756 16.084962 64.731991 -52.533539 -59.903361 21.509485 10.041137 -23.865267 -0.000018 -2.448555 6.440741 18.322281 -1.220901 0.057319 0.763205 0.000000 -0.000000 -10.262661 -5.518499 -9.816844 6.927754 0.000000 -0.000002 18.167149 -0.074889 0.859505 1.084714 0.000000 0.000000 -10.080457 -1.436600 3.578644 12.944771 0.000001 -0.000003
-0.159800 0.012207 0.092300 -80.124410 -178.394747 -3.031288 10.443688 -1.101975 -0.386674 -0.020842 -0.630292 0.294619 -1.770663 -0.912293 2.256998 0.088137 0.024699 0.550203 5.667168 0.115342 -1.816413 -2.938464 2.164291 -2.139942 -0.893452 1.543775 -0.335824 -4.204849 12.150603 -19.254013 65.700143 45.405469 57.398950 5.519989 -2.847658 27.206908 0.000030 -9.708776 -5.436703 -2.695323 -9.398574 16.081438 64.703591 -52.542108 -59.879743 21.504741 10.043804 -23.875987 -0.000033 -2.486183 6.446730 18.322285 -1.223500 0.052117 0.772004 -0.000000 -0.000000 -10.265745 -5.517433 -9.815816 6.921854 -0.000000 0.000001 18.172080 -0.079189 0.861804 1.084615 0.000000 -0.000000 -10.075071 -1.430812 3.577734 12.955770 0.000001 -0.000003
-0.163000 0.012608 0.093000 -80.114786 -178.396236 -3.027802 10.444695 -1.096874 -0.388673 -0.020935 -0.628992 0.294721 -1.769380 -0.909793 2.257998 0.089641 0.024299 0.551202 5.666254 0.093753 -1.813512 -2.933147 2.184264 -2.148875 -0.890861 1.544974 -0.335924 -4.202993 12.146872 -19.251404 65.671948 45.426502 57.404810 5.539728 -2.848660 27.131477 -0.000040 -9.742475 -5.402546 -2.696406 -9.398129 16.088213 64.684651 -52.533628 -59.874326 21.486488 10.035234 -23.877887 -0.000048 -2.502970 6.449419 18.327815 -1.219900 0.069720 0.771803 0.000000 -0.000000 -10.260153 -5.516767 -9.838117 6.926955 -0.000000 0.000002 18.176650 -0.074789 0.862104 1.081312 -0.000000 -0.000000 -10.068465 -1.437707 3.572244 12.948469 0.000001 -0.000004
-0.166700 0.012901 0.093300 -80.108270 -178.395143 -3.029798 10.445549 -1.094675 -0.387373 -0.022135 -0.628191 0.294920 -1.770550 -0.907192 2.262596 0.090205 0.021800 0.551903 5.675192 0.095752 -1.813111 -2.939050 2.172972 -2.149459 -0.890128 1.551074 -0.337126 -4.202077 12.144578 -19.251023 65.653732 45.428261 57.415499 5.547458 -2.844976 27.068851 0.000012 -9.753537 -5.402116 -2.695377 -9.394158 16.089047 64.672117 -52.532409 -59.867134 21.472593 10.033292 -23.888918 -0.000040 -2.501600 6.464027 18.323308 -1.220400 0.055917 0.780006 0.000000 -0.000000 -10.262639 -5.522147 -9.822831 6.927755 -0.000000 0.000001 18.176708 -0.075990 0.875804 1.082413 0.000000 0.000000 -10.064968 -1.445008 3.562352 12.950870 0.000001 -0.000004
-0.169700 0.013203 0.093500 -80.098503 -178.390157 -3.030009 10.445061 -1.094975 -0.387672 -0.020140 -0.628992 0.294919 -1.768713 -0.907791 2.265096 0.089925 0.022999 0.551602 5.672636 0.075762 -1.805211 -2.934108 2.194940 -2.160799 -0.891345 1.552074 -0.337525 -4.200715 12.141945 -19.249111 65.636649 45.429296 57.425464 5.556762 -2.843281 27.015905 0.000030 -9.772710 -5.398772 -2.694550 -9.387137 16.095588 64.661537 -52.540725 -59.881068 21.470186 10.021863 -23.867623 -0.000037 -2.495787 6.474405 18.331061 -1.225300 0.062619 0.773705 0.000000 0.000000 -10.257245 -5.521454 -9.829048 6.919655 0.000000 -0.000002 18.185314 -0.081289 0.882905 1.075213 -0.000000 -0.000000 -10.059065 -1.442322 3.556945 12.954670 0.000001 -0.000003
-0.173000 0.013504 0.094300 -80.090395 -178.391058 -3.031805 10.439709 -1.091175 -0.391273 -0.017533 -0.627792 0.295119 -1.764658 -0.908485 2.272498 0.089887 0.019500 0.552103 5.674439 0.097651 -1.809312 -2.934229 2.174555 -2.160471 -0.890895 1.555273 -0.338628 -4.199241 12.142713 -19.241700 65.605511 45.455578 57.425382 5.565855 -2.841963 26.967049 0.000041 -9.786981 -5.384089 -2.693395 -9.381527 16.097730 64.641026 -52.545632 -59.875685 21.476459 10.019263 -23.855356 -0.000013 -2.477797 6.454295 18.334919 -1.223600 0.078723 0.771105 -0.000000 0.000000 -10.250843 -5.529408 -9.842443 6.922555 -0.000001 -0.000002 18.190843 -0.079389 0.889605 1.069813 0.000000 -0.000000 -10.054453 -1.448215 3.553854 12.954669 0.000001 -0.000003
-0.176200 0.013504 0.094800 -80.081297 -178.393749 -3.030112 10.436712 -1.084573 -0.393873 -0.016131 -0.626891 0.295320 -1.759994 -0.908184 2.275598 0.089783 0.019300 0.553403 5.671128 0.085457 -1.805211 -2.930775 2.190538 -2.164197 -0.891144 1.549974 -0.337826 -4.196270 12.135853 -19.238707 65.587172 45.468108 57.442116 5.588841 -2.847556 26.916505 0.000017 -9.783313 -5.383018 -2.691843 -9.377686 16.094871 64.613494 -52.562264 -59.852907 21.472402 10.023581 -23.868791 0.000043 -2.486634 6.437229 18.339008 -1.219399 0.079424 0.770307 0.000000 -0.000000 -10.250272 -5.535686 -9.844362 6.927052 0.000000 -0.000001 18.195513 -0.074489 0.892605 1.067511 -0.000000 0.000000 -10.053232 -1.451924 3.543957 12.958471 0.000001 -0.000003
